<?xml version="1.0" encoding="utf-8"?>
<!-- Generator: Adobe Illustrator 24.0.3, SVG Export Plug-In . SVG Version: 6.00 Build 0)  -->
<svg version="1.1" id="Layer_1" xmlns="http://www.w3.org/2000/svg" xmlns:xlink="http://www.w3.org/1999/xlink" x="0px" y="0px"
	 viewBox="0 0 232.1 50.1" style="enable-background:new 0 0 232.1 50.1;" xml:space="preserve">
<style type="text/css">
	.st0{fill:#EABF43;}
	.st1{fill:#FFFFFF;}
</style>
<g>
	<path class="st0" d="M84.7,22.1c-0.4-0.2-0.8-0.3-1.3-0.2c-0.9,3.2-2.4,4.8-4.7,4.8h-4.9c-0.9,0-1.3-0.5-1.3-1.6v-8.8h3.3
		c0.7,0,1.5,0.1,2.2,0.3c0.4,0.1,0.7,0.4,0.9,0.8c0.1,0.5,0.2,0.9,0.2,1.4c0.4,0.2,0.8,0.2,1.2,0c0-1.7-0.1-2.7-0.1-3.2
		c0-0.6,0-1.7,0.1-3.1c-0.2-0.1-0.4-0.2-0.6-0.2c-0.2,0-0.4,0-0.6,0.2c0.1,0.7-0.1,1.5-0.6,2.1c-0.8,0.4-1.8,0.5-2.7,0.4h-3.3V7.7
		c0-0.4,0.1-0.8,0.3-1.2c0.2-0.3,0.6-0.5,0.9-0.5h3.8c1-0.1,1.9,0.2,2.6,0.9c0.7,0.9,1.2,2,1.4,3.1c0.4,0.1,0.8,0,1.2-0.2
		c-0.4-2.6-0.6-4.4-0.8-5.2c0-0.1,0-0.1-0.1-0.1c-0.6,0.1-1.2,0.1-1.8,0.1H71l-4.7-0.1c-0.1,0.2-0.2,0.4-0.1,0.7
		c0,0.2,0,0.4,0.1,0.6C67.3,6,68.2,6.2,69,6.6c0.4,0.3,0.6,1.2,0.6,2.7v14.3c0,1.4-0.2,2.3-0.6,2.7c-0.8,0.5-1.7,0.7-2.6,0.6
		c-0.1,0.2-0.2,0.4-0.1,0.7c0,0.2,0,0.4,0.1,0.6c1.2,0,2.7,0,4.7-0.1h7.7c1.1,0,2.7,0,4.6,0.1C84,26.1,84.4,24.2,84.7,22.1z"/>
	<path class="st0" d="M44.5,26.7c-0.3,0-0.5-0.1-0.8-0.2c-0.3-0.1-0.6-0.3-0.8-0.6c-0.2-0.3-0.4-0.7-0.5-1L34.9,4.3
		c-0.6,0.4-1.3,0.7-2,0.7l-8.2,19.2c-0.3,0.8-0.8,1.5-1.4,2c-0.7,0.3-1.4,0.5-2.2,0.6c-0.1,0.2-0.2,0.4-0.2,0.7c0,0.2,0,0.5,0.2,0.6
		c1.8-0.1,2.9-0.1,3.2-0.1c1.3,0,2.8,0,4.6,0.1c0.1-0.2,0.2-0.4,0.1-0.6c0-0.2,0-0.5-0.1-0.7c-0.3,0-0.5-0.1-0.7-0.1
		c-0.2,0-0.5-0.1-0.7-0.1c-0.2,0-0.4-0.1-0.6-0.2l-0.4-0.3c-0.2-0.1-0.2-0.3-0.2-0.5c0.1-0.2,0.1-0.4,0.1-0.6l2-5.1
		c0.1-0.2,0.2-0.4,0.4-0.5c0.3-0.1,0.6-0.2,0.9-0.1h7.6l2.1,6c0,0.1,0.1,0.3,0.1,0.4c0,0.1,0,0.2,0,0.3c0,0.1-0.1,0.2-0.1,0.3
		c-0.1,0.1-0.2,0.1-0.3,0.2c-0.1,0-0.2,0.1-0.3,0.1c-0.1,0-0.3,0.1-0.4,0.1c-0.2,0-0.4,0-0.5,0.1c-0.1,0-0.3,0-0.5,0
		c-0.2,0-0.4,0-0.6,0c-0.1,0.2-0.2,0.4-0.1,0.7c0,0.2,0,0.4,0.1,0.6C38.5,28,40,28,41.4,28c1,0,2.3,0,4.1,0.1
		c0.1-0.2,0.2-0.4,0.2-0.6c0-0.2,0-0.5-0.2-0.7C45,26.7,44.6,26.7,44.5,26.7z M30.3,17.8c-0.2,0-0.3,0-0.4,0c-0.1,0-0.2,0-0.3,0
		c-0.1,0-0.1,0-0.2-0.1c0,0-0.1-0.1-0.1-0.1c0-0.1,0-0.1,0-0.2L33.1,8h0.2l3.4,9.8H30.3z"/>
	<path class="st0" d="M56.5,27.5c0-0.2,0-0.5-0.2-0.7c-1,0-2-0.2-3-0.6c-0.5-0.3-0.7-1.2-0.7-2.6v-6c0.9,0.3,1.9,0.4,2.9,0.4
		c1.4,0,2.7-0.2,4-0.7c1-0.4,1.9-1,2.6-1.8c0.6-0.7,1-1.5,1.3-2.3c0.3-0.8,0.4-1.6,0.4-2.5c0-0.6-0.1-1.3-0.3-1.9
		c-0.3-0.7-0.7-1.3-1.1-1.9C61.8,6,60.9,5.5,60,5.2c-1.3-0.4-2.6-0.6-3.9-0.6c-0.3,0-1,0-2.3,0.1c-1.3,0.1-2.1,0.1-2.7,0.1
		c-0.7,0-2.2,0-4.6-0.1c-0.1,0.2-0.2,0.4-0.2,0.7c0,0.2,0,0.4,0.2,0.6c0.9-0.1,1.8,0.1,2.5,0.6c0.4,0.3,0.5,1.2,0.5,2.7v14.3h0
		c0,1.4-0.2,2.3-0.5,2.7c-0.8,0.5-1.7,0.7-2.5,0.6c-0.1,0.2-0.2,0.4-0.2,0.7c0,0.2,0,0.5,0.2,0.6c2.3-0.1,3.9-0.1,4.7-0.1
		c1.1,0,2.8,0,5.2,0.1C56.5,27.9,56.6,27.7,56.5,27.5z M52.7,8.2c0-1.5,1-2.3,3.1-2.3c1.3-0.1,2.6,0.3,3.6,1.1
		c0.9,0.8,1.4,2.2,1.4,4.2c0.1,1.5-0.4,3-1.3,4.1c-1.1,0.9-2.6,1.4-4,1.3c-0.9,0-1.8,0-2.7-0.2V8.2z"/>
	<path class="st1" d="M220.7,48.3c-0.1,0-0.3,0-0.4-0.1c-0.1,0-0.2-0.1-0.3-0.1c-0.1-0.1-0.1-0.2-0.1-0.3c0-0.1-0.1-0.3-0.1-0.5
		c0-0.2,0-0.4-0.1-0.7l-0.6-8.4c-0.1-0.4,0-0.7,0.2-1.1c0.4-0.2,0.8-0.3,1.2-0.3c0.1-0.1,0.1-0.2,0.1-0.4c0-0.1,0-0.3-0.1-0.4
		l-2.6,0l-4.3,10.1c0,0.1-0.1,0.2-0.2,0.3c-0.1-0.1-0.1-0.2-0.2-0.3l-4.1-10.1l-2.9,0c-0.1,0.1-0.1,0.2-0.1,0.4c0,0.1,0,0.3,0.1,0.4
		c0.4,0,0.9,0.1,1.3,0.3c0.2,0.4,0.2,0.9,0.1,1.3l-0.8,8.2c0,0.5-0.1,0.9-0.4,1.3c-0.3,0.3-0.7,0.5-1.1,0.4
		c-0.1,0.1-0.1,0.2-0.1,0.4c0,0.1,0,0.2,0.1,0.3c0.8,0,1.4,0,1.7,0c0.4,0,1.1,0,1.9,0c0.1-0.1,0.1-0.2,0.1-0.3c0-0.1,0-0.3-0.1-0.4
		c-0.4,0-0.9-0.2-1.2-0.5c-0.2-0.4-0.2-0.9-0.2-1.3l0.8-8l0,0l4.2,10.3c0,0.1,0.2,0.2,0.3,0.2c0.1,0,0.2-0.1,0.3-0.2l4.5-10.5l0,0
		l0.5,8.4c0,0.3,0,0.5,0,0.7v0c0,0.1,0,0.3,0,0.4c0,0.1-0.1,0.2-0.1,0.3c-0.1,0.1-0.2,0.1-0.2,0.1c-0.1,0-0.2,0.1-0.4,0.1
		c-0.1,0-0.3,0-0.6,0c-0.1,0.1-0.1,0.2-0.1,0.4c0,0.1,0,0.3,0.1,0.4c1.3,0,2,0,2.2,0c0.6,0,1.3,0,2.2,0c0.1-0.1,0.1-0.2,0.1-0.4
		c0-0.1,0-0.3-0.1-0.4C221.1,48.3,220.9,48.3,220.7,48.3z"/>
	<path class="st1" d="M72.2,49.1c-0.2,0-0.4-0.1-0.6-0.2c-0.2-0.1-0.4-0.2-0.6-0.4c-0.2-0.2-0.3-0.5-0.4-0.7l-5.2-14.2
		c-0.4,0.3-0.9,0.5-1.4,0.5l-5.7,13.3c-0.2,0.6-0.5,1-1,1.4c-0.5,0.2-1,0.4-1.5,0.4c-0.1,0.1-0.1,0.3-0.1,0.5c0,0.2,0,0.3,0.1,0.4
		c1.2,0,2-0.1,2.2-0.1c0.9,0,2,0,3.2,0.1c0.1-0.1,0.1-0.3,0.1-0.4c0-0.2,0-0.3-0.1-0.5c-0.2,0-0.4,0-0.5,0c-0.2,0-0.3,0-0.5-0.1
		c-0.1,0-0.3-0.1-0.4-0.1l-0.3-0.2c-0.1-0.1-0.2-0.2-0.1-0.3c0-0.1,0.1-0.3,0.1-0.4l1.4-3.6c0-0.1,0.1-0.3,0.3-0.3
		C61.6,44,61.8,44,62,44h5.3l1.5,4.2c0,0.1,0,0.2,0.1,0.3c0,0.1,0,0.2,0,0.2c0,0.1-0.1,0.1-0.1,0.2c-0.1,0.1-0.1,0.1-0.2,0.1
		c-0.1,0-0.2,0.1-0.2,0.1c-0.1,0-0.2,0-0.3,0c-0.1,0-0.2,0-0.3,0s-0.2,0-0.4,0c-0.2,0-0.3,0-0.4,0c-0.1,0.1-0.1,0.3-0.1,0.5
		c0,0.2,0,0.3,0.1,0.4c1.2,0,2.3-0.1,3.3-0.1c0.7,0,1.6,0,2.9,0.1c0.1-0.1,0.1-0.3,0.1-0.4c0-0.2,0-0.3-0.1-0.5
		C72.6,49.1,72.4,49.1,72.2,49.1z M62.4,43c-0.1,0-0.2,0-0.3,0c-0.1,0-0.1,0-0.2,0c0,0-0.1,0-0.1-0.1c0,0,0-0.1,0-0.1
		c0,0,0-0.1,0-0.1l2.6-6.5h0.2l2.3,6.8H62.4z"/>
	<path class="st0" d="M90.5,28c1.2,0.3,2.5,0.4,3.7,0.4c1.6,0,3.1-0.4,4.5-1.2c1-0.6,1.9-1.5,2.5-2.5c0.6-1,0.9-2.1,0.9-3.3
		c0-0.8-0.1-1.5-0.4-2.2c-0.3-0.7-0.6-1.3-1.1-1.8c-0.5-0.5-1-0.9-1.6-1.3c-0.6-0.4-1.2-0.7-1.9-1L96,14.8c-0.6-0.2-1.1-0.4-1.4-0.6
		c-0.5-0.2-1-0.5-1.4-0.7c-0.5-0.3-1-0.6-1.4-1c-0.4-0.4-0.7-0.8-0.9-1.2c-0.3-0.5-0.4-1-0.4-1.6c0-1,0.4-2,1.2-2.8
		c0.7-0.8,1.7-1.2,2.7-1.2c0.5,0,0.9,0,1.4,0.1c0.4,0.1,0.7,0.2,1.1,0.4c0.3,0.2,0.6,0.3,0.9,0.6c0.3,0.2,0.5,0.5,0.7,0.7
		C98.6,7.7,98.8,8,99,8.3c0.2,0.3,0.3,0.6,0.4,0.9c0.1,0.3,0.2,0.6,0.3,1c0.4,0,0.8,0,1.2-0.2c-0.1-1.6-0.3-3.1-0.7-4.6
		c-0.7-0.1-1.3-0.3-2-0.6v0c-1.1-0.3-2.3-0.5-3.5-0.5c-1.8,0-3.6,0.6-5,1.7c-1.4,1.1-2.1,2.8-2.1,4.5c0,1,0.3,2,0.8,2.8
		c0.5,0.8,1.1,1.5,1.9,2c0.9,0.6,1.8,1,2.7,1.4c0.2,0.1,0.6,0.3,1.2,0.5c0.6,0.2,1,0.4,1.4,0.6c0.4,0.2,0.8,0.4,1.2,0.7
		c0.4,0.3,0.8,0.6,1.1,1c0.3,0.4,0.5,0.8,0.7,1.3c0.2,0.6,0.3,1.2,0.3,1.8c0.1,1.2-0.3,2.4-1.2,3.3c-0.9,0.8-2.1,1.2-3.3,1.1
		c-3.6,0-5.8-1.7-6.5-5.1c-0.4-0.1-0.8-0.1-1.2,0.1c0.1,1.8,0.3,3.7,0.7,5.5C88.5,27.6,89.5,27.7,90.5,28z"/>
	<path class="st0" d="M128.8,26.2c-0.8,0.5-1.7,0.7-2.5,0.6c-0.1,0.2-0.2,0.5-0.2,0.7c0,0.2,0,0.4,0.2,0.6c2.3,0,3.9-0.1,4.7-0.1
		c0.7,0,2.2,0,4.7,0.1c0.1-0.2,0.1-0.4,0.1-0.6c0-0.2,0-0.5-0.1-0.7c-0.9,0.1-1.8-0.1-2.5-0.6c-0.4-0.3-0.6-1.2-0.6-2.6v-6h0
		c1-0.1,2,0.1,2.9,0.3c0.5,0.2,1,0.5,1.3,1l3.8,6.1c1.3,2.2,2.9,3.3,4.7,3.3c0.5,0,1-0.1,1.5-0.2c0.1-0.3,0.1-0.6,0-0.9
		c-0.7,0-1.4-0.2-1.9-0.7c-0.6-0.6-1.2-1.3-1.6-2.1l-4.5-7.5c1.2-0.4,2.2-1.2,3.1-2.1c1-1.1,1.5-2.5,1.5-4c0-1.7-0.6-3.4-1.9-4.5
		c-0.7-0.7-1.6-1.2-2.5-1.4c-1.2-0.2-2.3-0.3-3.5-0.3c-0.3,0-1,0-2.1,0.1c-1.1,0.1-1.9,0.1-2.4,0.1c-0.7,0-2.2,0-4.6-0.1
		c-0.1,0.2-0.2,0.4-0.2,0.7c0,0.2,0,0.4,0.2,0.6c0.9-0.1,1.8,0.1,2.5,0.6c0.4,0.3,0.5,1.2,0.5,2.7v14.3
		C129.3,25,129.1,25.9,128.8,26.2z M132.4,8.1c0-1.5,1-2.3,3-2.3c3.2,0,4.8,1.7,4.8,5v0c0,2.1-0.5,3.5-1.6,4.3
		c-1.3,0.9-2.9,1.3-4.5,1.2h-1.7V8.1z"/>
	<path class="st0" d="M16.8,27.7c-0.5-0.4-0.8-1.6-0.8-3.4V6.7c-0.1-1.2,0.1-2.4,0.5-3.5C16.7,2.5,17.4,2,18.1,2h1
		c1.5-0.1,3,0.3,4.3,1.1c1.2,0.9,1.9,2.3,2.1,3.8c0.5,0,1.1-0.1,1.5-0.2c-0.3-2.2-0.5-4.3-0.6-6.5c0-0.1,0-0.1-0.1-0.1c0,0,0,0,0,0
		C23.5,0.2,20.1,0.4,16,0.4h-4C8,0.4,4.4,0.2,1.3,0C1.2,0,1.1,0,1.1,0.1C0.9,2.4,0.5,4.6,0,6.8C0.5,7,1,7,1.6,7
		c0.2-1.5,1-2.9,2.2-3.9C4.9,2.4,6.2,2,7.6,2h2.2c0.8,0,1.5,0.4,1.7,1.2c0.4,1.1,0.5,2.2,0.5,3.4v17.7c0,1.8-0.3,3-0.8,3.4
		s-1.7,0.7-3.7,0.8c-0.1,0.3-0.2,0.6-0.2,0.9c0,0.3,0,0.6,0.1,0.8c3-0.1,5.2-0.1,6.5-0.1c1.2,0,3.3,0,6.4,0.1
		c0.2-0.2,0.3-0.5,0.2-0.8c0-0.3-0.1-0.6-0.2-0.9C18.5,28.4,17.3,28.1,16.8,27.7z"/>
	<path class="st1" d="M231.4,45.7c-0.5,1.8-1.3,2.6-2.6,2.6h-2.7c-0.4,0-0.7-0.3-0.7-0.7c0-0.1,0-0.1,0-0.2v-4.9h1.8
		c0.4,0,0.8,0,1.2,0.2c0.2,0.1,0.4,0.2,0.5,0.4c0.1,0.3,0.1,0.5,0.1,0.8c0.1,0.1,0.2,0.1,0.3,0.1c0.1,0,0.2,0,0.3-0.1
		c0-0.9,0-1.5,0-1.8c0-0.4,0-0.9,0-1.7c-0.1-0.1-0.2-0.1-0.3-0.1c-0.1,0-0.2,0-0.3,0.1c0,0.4-0.1,0.8-0.3,1.2
		c-0.5,0.2-1,0.3-1.5,0.2h-1.8v0l0,0h0v-4.1c0-0.2,0.1-0.5,0.2-0.6c0.1-0.2,0.3-0.3,0.5-0.3h2.1c0.5-0.1,1.1,0.1,1.4,0.5
		c0.4,0.5,0.6,1.1,0.8,1.7c0.2,0,0.5,0,0.7-0.1c-0.2-1.5-0.3-2.4-0.4-2.9c0,0,0-0.1-0.1-0.1c-0.3,0.1-0.6,0.1-1,0.1h-5.1l-2.6,0
		c-0.1,0.1-0.1,0.2-0.1,0.4c0,0.1,0,0.2,0.1,0.4c0.5,0,1,0.1,1.4,0.3c0.3,0.4,0.4,1,0.3,1.5v7.9c0.1,0.5,0,1-0.3,1.5
		c-0.4,0.3-0.9,0.4-1.4,0.3c-0.1,0.1-0.1,0.2-0.1,0.4c0,0.1,0,0.2,0.1,0.3c0.7,0,1.5,0,2.6,0h4.3c0.6,0,1.5,0,2.6,0
		c0.3-1.1,0.6-2.2,0.7-3.3C231.9,45.6,231.6,45.6,231.4,45.7z"/>
	<path class="st1" d="M119.6,36.1c-0.2,0-1,0-2.3,0c-0.1,0.1-0.1,0.2-0.1,0.4c0,0.1,0,0.2,0.1,0.4c0.4,0,0.8,0.1,0.9,0.1
		c0.2,0,0.4,0.1,0.5,0.2c0.2,0.1,0.3,0.3,0.3,0.5c0,0.3,0.1,0.6,0.1,1v4.9c0,0.5,0,1,0,1.4c0,0.4-0.1,0.9-0.3,1.3
		c-0.1,0.4-0.3,0.8-0.6,1.2c-0.3,0.3-0.7,0.6-1.1,0.8c-0.5,0.2-1.1,0.3-1.7,0.3c-0.9,0-1.7-0.4-2.4-1c-0.3-0.3-0.6-0.7-0.7-1.1
		c-0.1-0.4-0.2-0.8-0.3-1.2c0-0.4,0-0.8,0-1.4v-5.1c-0.1-0.5,0-1,0.3-1.5c0.5-0.3,1-0.4,1.5-0.3c0.1-0.1,0.1-0.2,0.1-0.4
		c0-0.1,0-0.3-0.1-0.4c-1.3,0-2.2,0-2.7,0c-0.3,0-1,0-2.4,0c-0.1,0.1-0.1,0.2-0.1,0.4c0,0.1,0,0.2,0.1,0.4c0.4,0,0.9,0.1,1.2,0.3
		c0.2,0.4,0.3,1,0.3,1.5v5.7c0,0.8,0.1,1.7,0.5,2.5c0.3,0.6,0.7,1.1,1.2,1.5c0.5,0.3,1,0.5,1.5,0.7c0.5,0.1,1,0.2,1.5,0.2
		c0.9,0,1.7-0.1,2.5-0.4c0.6-0.3,1.2-0.7,1.6-1.3c0.4-0.6,0.6-1.2,0.8-1.9c0.2-0.8,0.2-1.6,0.2-2.5v-4.5c0-0.4,0-0.8,0.2-1.2
		c0.1-0.2,0.2-0.4,0.4-0.5c0.3-0.1,0.6-0.1,1-0.2c0.1-0.1,0.1-0.2,0.1-0.4c0-0.1,0-0.3-0.1-0.4C120.3,36.1,119.7,36.1,119.6,36.1z"
		/>
	<path class="st1" d="M132.3,39.3c0-0.4-0.1-0.7-0.2-1c-0.1-0.4-0.4-0.7-0.6-1.1c-0.4-0.4-0.8-0.7-1.4-0.9c-0.7-0.2-1.4-0.4-2.2-0.3
		c-0.2,0-0.6,0-1.3,0.1c-0.7,0-1.2,0.1-1.5,0.1c-0.4,0-1.2,0-2.6,0c-0.1,0.1-0.1,0.2-0.1,0.4c0,0.1,0,0.2,0.1,0.3
		c0.5,0,1,0.1,1.4,0.3c0.3,0.4,0.4,1,0.3,1.5v7.9l0,0c0.1,0.5,0,1-0.3,1.5c-0.4,0.3-0.9,0.4-1.4,0.3c-0.1,0.1-0.1,0.2-0.1,0.4
		c0,0.1,0,0.3,0.1,0.3c1.3,0,2.2,0,2.6,0c0.6,0,1.5,0,2.9,0c0.1-0.1,0.1-0.2,0.1-0.3c0-0.1,0-0.3-0.1-0.4c-0.6,0-1.1-0.1-1.6-0.3
		c-0.3-0.4-0.5-0.9-0.4-1.4v-3.3c0.5,0.2,1.1,0.2,1.6,0.2c0.8,0,1.5-0.1,2.2-0.4c0.6-0.2,1.1-0.6,1.4-1c0.3-0.4,0.6-0.8,0.7-1.3
		C132.2,40.3,132.3,39.8,132.3,39.3z M128.4,42.7c-0.3,0-0.5,0-0.8,0c-0.5,0-1,0-1.5-0.1V38c0-0.8,0.6-1.3,1.7-1.3l0,0
		c0.7,0,1.4,0.2,2,0.6c0.6,0.6,0.9,1.5,0.8,2.4C130.8,41.1,129.8,42.5,128.4,42.7z"/>
	<path class="st1" d="M177.3,33.7C177.3,33.7,177.3,33.7,177.3,33.7c-1.5,0.1-3.4,0.2-5.6,0.2h-2.2c-2.2,0-4.1-0.1-5.8-0.2
		c-0.1,0-0.1,0-0.1,0.1c-0.1,1.2-0.3,2.4-0.6,3.6c0.3,0.1,0.6,0.1,0.9,0.1c0.2-1.7,1.6-2.9,3.3-2.7h1.2c0.4,0,0.8,0.2,0.9,0.6
		c0.2,0.6,0.3,1.2,0.3,1.8v9.6c0.1,0.7-0.1,1.3-0.4,1.9c-0.6,0.3-1.3,0.5-2,0.4c-0.1,0.1-0.1,0.3-0.1,0.5c0,0.1,0,0.3,0.1,0.4
		c1.6,0,2.8-0.1,3.5-0.1c0.6,0,1.8,0,3.5,0.1c0.1-0.1,0.2-0.3,0.1-0.4c0-0.2,0-0.3-0.1-0.5c-0.7,0-1.4-0.1-2-0.4
		c-0.4-0.5-0.5-1.2-0.4-1.9v-9.5h0c0-0.6,0.1-1.3,0.2-1.9c0.1-0.4,0.5-0.6,0.9-0.6h0.5c0.8,0,1.6,0.2,2.3,0.6c0.6,0.5,1,1.2,1.2,2
		c0.3,0,0.6,0,0.8-0.1C177.5,36.2,177.4,35,177.3,33.7C177.3,33.7,177.3,33.7,177.3,33.7z"/>
	<path class="st0" d="M159.5,26.2c-0.4-0.3-0.6-1.2-0.6-2.7v-4.8h0c0-0.4,0-0.7,0-1c0-0.3,0.1-0.5,0.2-0.8c0.1-0.3,0.2-0.7,0.4-1
		l4.3-7.7c0.3-0.7,0.8-1.3,1.4-1.7c0.6-0.3,1.3-0.5,2-0.5c0.1-0.2,0.2-0.4,0.2-0.6c0-0.2,0-0.5-0.2-0.7c-1.4,0.1-2.4,0.1-3,0.1
		c-0.3,0-1.3,0-3.3-0.1c-0.1,0.2-0.2,0.4-0.2,0.7c0,0.2,0,0.5,0.2,0.6c0.3,0,0.7,0.1,1,0.1c0.2,0,0.4,0.1,0.6,0.3
		c0.1,0.1,0.2,0.4,0.1,0.6c-0.1,0.3-0.2,0.6-0.3,0.9l-4,7.4c-0.1,0.2-0.2,0.3-0.4,0.4c-0.2-0.1-0.3-0.3-0.4-0.5L153.4,8
		c-0.4-0.4-0.5-1-0.4-1.5c0.5-0.4,1.1-0.5,1.7-0.5c0.1-0.2,0.2-0.4,0.2-0.6c0-0.2,0-0.5-0.2-0.7c-1.9,0.1-3.3,0.1-4.1,0.1
		c-1,0-2.2,0-3.7-0.1c-0.1,0.2-0.2,0.4-0.1,0.7c0,0.2,0,0.5,0.2,0.7c0.4,0,0.9,0.1,1.3,0.2c0.4,0.1,0.7,0.4,1,0.7
		c0.4,0.5,0.8,1,1.1,1.5l4.7,7.9c0.3,0.4,0.5,0.8,0.6,1.3c0.1,0.5,0.2,1,0.1,1.4v4.5c0,1.4-0.2,2.3-0.6,2.7
		c-0.9,0.5-1.9,0.7-2.9,0.6c-0.1,0.2-0.2,0.4-0.2,0.7c0,0.2,0,0.5,0.2,0.6c2.3-0.1,4-0.1,5-0.1c0.9,0,2.6,0,5,0.1
		c0.1-0.2,0.2-0.4,0.1-0.6c0-0.2,0-0.5-0.1-0.7C161.4,26.9,160.4,26.7,159.5,26.2z"/>
	<path class="st0" d="M124.5,9.7c-0.3-1.7-0.4-3.4-0.5-5.1c0-0.1,0-0.1-0.1-0.1c0,0,0,0,0,0c-2.2,0.2-4.9,0.3-8.1,0.3h-3.1
		c-3.2,0-6-0.1-8.4-0.3c-0.1,0-0.2,0-0.2,0.1c-0.2,1.8-0.5,3.5-0.9,5.2c0.4,0.1,0.8,0.2,1.2,0.2c0.2-1.2,0.8-2.3,1.7-3
		c0.9-0.6,2-0.9,3.1-0.9h1.8c0.6,0,1.1,0.3,1.3,0.9c0.3,0.9,0.4,1.8,0.4,2.7v13.8c0,1.4-0.2,2.3-0.6,2.7c-0.9,0.5-1.9,0.7-2.9,0.6
		c-0.1,0.2-0.2,0.4-0.1,0.7c0,0.2,0,0.4,0.1,0.6c2.4-0.1,4.1-0.1,5.1-0.1c0.9,0,2.6,0,5,0.1c0.2-0.2,0.2-0.4,0.2-0.6
		c0-0.2,0-0.5-0.2-0.7c-1,0.1-2-0.1-2.9-0.6c-0.4-0.3-0.6-1.2-0.6-2.7V9.8h0c0-0.9,0.1-1.9,0.4-2.8c0.2-0.6,0.7-0.9,1.3-0.9h0.8
		c1.2-0.1,2.3,0.2,3.3,0.9c0.9,0.7,1.5,1.8,1.7,2.9C123.7,9.9,124.1,9.9,124.5,9.7z"/>
	<path class="st1" d="M144.8,48.3c-0.2,0-0.3-0.1-0.4-0.1c-0.2-0.1-0.3-0.2-0.5-0.3c-0.1-0.2-0.2-0.4-0.3-0.6l-4.1-11.4
		c-0.3,0.2-0.7,0.4-1.1,0.4l-4.5,10.7c-0.1,0.4-0.4,0.8-0.8,1.1c-0.4,0.2-0.8,0.3-1.2,0.3c-0.1,0.1-0.1,0.2-0.1,0.4
		c0,0.1,0,0.3,0.1,0.3c1,0,1.6,0,1.8,0c0.7,0,1.6,0,2.6,0c0.1-0.1,0.1-0.2,0.1-0.3c0-0.1,0-0.3-0.1-0.4c-0.2,0-0.3,0-0.4,0
		c-0.1,0-0.3,0-0.4-0.1c-0.1,0-0.2-0.1-0.3-0.1l-0.2-0.2c-0.1,0-0.1-0.2-0.1-0.2c0-0.1,0-0.2,0.1-0.3l1.1-2.9c0-0.1,0.1-0.2,0.2-0.3
		c0.2-0.1,0.3-0.1,0.5-0.1h4.2l1.2,3.3c0,0.1,0,0.2,0,0.2c0,0.1,0,0.1,0,0.2c0,0,0,0.1-0.1,0.1c0,0-0.1,0.1-0.2,0.1
		c-0.1,0-0.1,0-0.2,0.1c-0.1,0-0.2,0-0.2,0c-0.1,0-0.2,0-0.3,0l-0.3,0c-0.1,0-0.2,0-0.3,0c-0.1,0.1-0.1,0.2-0.1,0.4
		c0,0.1,0,0.2,0.1,0.3c1,0,1.9,0,2.6,0c0.5,0,1.3,0,2.3,0c0.1-0.1,0.1-0.2,0.1-0.3c0-0.1,0-0.3-0.1-0.4
		C145.1,48.3,144.9,48.3,144.8,48.3z M137,43.4c-0.1,0-0.2,0-0.2,0c-0.1,0-0.1,0-0.2,0c0,0-0.1,0-0.1,0c0,0,0,0,0-0.1
		c0,0,0-0.1,0-0.1l2-5.2h0.1l1.9,5.4H137z"/>
	<path class="st1" d="M107.5,48.2c-0.3-0.3-0.6-0.7-0.9-1.1l-2.5-4.2c0.7-0.2,1.2-0.6,1.7-1.2c0.6-0.6,0.9-1.4,0.8-2.2
		c0-0.9-0.3-1.9-1-2.5c-0.4-0.4-0.9-0.7-1.4-0.8c-0.6-0.1-1.3-0.2-1.9-0.2c-0.1,0-0.5,0-1.2,0.1c-0.6,0-1.1,0.1-1.4,0.1
		c-0.4,0-1.2,0-2.6,0c-0.1,0.1-0.1,0.2-0.1,0.4c0,0.1,0,0.2,0.1,0.3c0.5,0,1,0.1,1.4,0.3c0.3,0.4,0.4,1,0.3,1.5v7.9
		c0.1,0.5,0,1-0.3,1.5c-0.4,0.3-0.9,0.4-1.4,0.3c-0.1,0.1-0.1,0.3-0.1,0.4c0,0.1,0,0.2,0.1,0.3c1.3,0,2.2,0,2.6,0c0.4,0,1.2,0,2.6,0
		c0.1-0.1,0.1-0.2,0.1-0.3c0-0.1,0-0.3-0.1-0.4c-0.5,0-1-0.1-1.4-0.3c-0.3-0.4-0.4-1-0.3-1.5v-3.3v0c0.5,0,1.1,0,1.6,0.2
		c0.3,0.1,0.5,0.3,0.7,0.6l2.1,3.4c0.5,1,1.5,1.8,2.6,1.8c0.3,0,0.6,0,0.8-0.1c0.1-0.2,0.1-0.3,0-0.5
		C108.2,48.6,107.8,48.5,107.5,48.2z M101.6,42.5h-1V38c0-0.8,0.6-1.3,1.7-1.3c1.8,0,2.6,0.9,2.7,2.8c0.1,0.9-0.2,1.8-0.9,2.4
		C103.4,42.4,102.5,42.6,101.6,42.5z"/>
	<path class="st1" d="M155.1,45.7c-0.2,0.7-0.5,1.4-1.1,1.9c-0.6,0.5-1.4,0.7-2.2,0.7h-1.5c-0.3,0-0.5-0.1-0.7-0.3
		c-0.2-0.2-0.3-0.5-0.2-0.7v-8.7c-0.1-0.5,0-1,0.3-1.5c0.4-0.3,0.9-0.4,1.4-0.3c0.1-0.1,0.1-0.2,0.1-0.4c0-0.1,0-0.3-0.1-0.4
		c-1.3,0-2.2,0-2.6,0c-0.4,0-1.2,0-2.6,0c-0.1,0.1-0.1,0.2-0.1,0.4c0,0.1,0,0.3,0.1,0.4c0.5,0,1,0.1,1.4,0.3c0.3,0.4,0.4,1,0.3,1.5
		v7.9c0.1,0.5,0,1-0.3,1.5c-0.4,0.3-0.9,0.4-1.4,0.3c-0.1,0.1-0.1,0.2-0.1,0.4c0,0.1,0,0.3,0.1,0.3c0.6,0,1.5,0,2.6,0h4.3l0,0
		c0.4,0,1.2,0,2.4,0c0.2-1,0.4-2.1,0.5-3.3C155.5,45.7,155.3,45.6,155.1,45.7z"/>
	<path class="st1" d="M193,36.8c0.1-0.1,0.1-0.2,0.1-0.4c0-0.1,0-0.3-0.1-0.4c-1.3,0-2.2,0-2.6,0c-0.4,0-1.3,0-2.6,0
		c0,0.1-0.1,0.2-0.1,0.4c0,0.1,0,0.2,0.1,0.4c0.5,0,1,0.1,1.4,0.3c0.3,0.4,0.4,1,0.3,1.5v3.2h-6.8v-3.2c-0.1-0.5,0-1,0.3-1.5
		c0.4-0.3,0.9-0.4,1.4-0.3c0.1-0.1,0.1-0.2,0.1-0.4c0-0.1,0-0.3-0.1-0.4c-1.3,0-2.2,0-2.6,0c-0.4,0-1.2,0-2.6,0
		c-0.1,0.1-0.1,0.2-0.1,0.4c0,0.1,0,0.3,0.1,0.4c0.5,0,1,0.1,1.4,0.3c0.3,0.4,0.4,1,0.3,1.5v7.9c0.1,0.5,0,1-0.3,1.5
		c-0.4,0.3-0.9,0.4-1.4,0.3c-0.1,0.1-0.1,0.2-0.1,0.4c0,0.1,0,0.3,0.1,0.3c1.3,0,2.2,0,2.6,0c0.4,0,1.2,0,2.6,0
		c0.1-0.1,0.1-0.2,0.1-0.3c0-0.1,0-0.3-0.1-0.4c-0.5,0-1-0.1-1.4-0.3c-0.3-0.4-0.4-1-0.3-1.5v-3.9h6.8v3.9c0.1,0.5,0,1-0.3,1.5
		c-0.4,0.3-0.9,0.4-1.4,0.3c-0.1,0.1-0.1,0.2-0.1,0.4c0,0.1,0,0.2,0.1,0.3c1.3,0,2.2,0,2.6,0c0.4,0,1.2,0,2.6,0
		c0.1-0.1,0.1-0.2,0.1-0.3c0-0.1,0-0.3-0.1-0.4c-0.5,0-1-0.1-1.4-0.3c-0.3-0.4-0.4-1-0.3-1.5v-7.9l0,0c-0.1-0.5,0-1,0.3-1.5
		C192,36.9,192.5,36.8,193,36.8z"/>
	<path class="st1" d="M87.3,33.9c-0.6,0-1.4,0-2.3,0c-1,0-1.6,0-1.8,0c-0.5,0-1.5,0-3.2-0.1l0,0c-0.1,0.1-0.1,0.3-0.1,0.5
		c0,0.2,0,0.3,0.1,0.4c0.6-0.1,1.2,0.1,1.8,0.4c0.3,0.6,0.5,1.2,0.4,1.8v10c0.1,0.6,0,1.3-0.4,1.9c-0.5,0.3-1.2,0.5-1.8,0.4
		c-0.1,0.1-0.1,0.3-0.1,0.4c0,0.2,0,0.3,0.1,0.4c1.6,0,2.7-0.1,3.2-0.1c0.2,0,0.7,0,1.7,0c0.9,0,1.9,0,2.9,0c0.9,0,1.9-0.1,2.8-0.4
		c0.9-0.3,1.8-0.7,2.6-1.2c0.9-0.6,1.6-1.4,2-2.4c0.5-1.2,0.8-2.5,0.8-3.8c0-2.3-0.9-4.4-2.5-6C91.8,34.7,89.6,33.8,87.3,33.9z
		 M93,46c-0.3,0.8-0.8,1.4-1.5,1.9c-0.6,0.4-1.3,0.8-2,1c-0.8,0.2-1.7,0.3-2.5,0.3c-0.7,0.1-1.5,0-2.2-0.3c-0.3-0.2-0.5-0.6-0.5-1
		V36h0c0-0.8,0.7-1.2,2.1-1.2c1.2,0,2.3,0.2,3.4,0.7c0.9,0.4,1.7,1.1,2.2,1.9c0.5,0.8,0.9,1.7,1.2,2.6c0.3,0.9,0.4,1.9,0.4,2.9
		C93.6,44,93.4,45,93,46z"/>
	<path class="st1" d="M203.6,45.7c-0.5,1.8-1.3,2.6-2.6,2.6h-2.7c-0.4,0-0.7-0.3-0.7-0.7c0-0.1,0-0.1,0-0.2v-4.9h1.8
		c0.4,0,0.8,0,1.2,0.2c0.2,0.1,0.4,0.2,0.5,0.4c0.1,0.3,0.1,0.5,0.1,0.8c0.2,0.1,0.5,0.1,0.7,0c0-0.9,0-1.5,0-1.8c0-0.4,0-0.9,0-1.7
		c-0.1-0.1-0.2-0.1-0.3-0.1c-0.1,0-0.2,0-0.3,0.1c0,0.4-0.1,0.8-0.3,1.2c-0.5,0.2-1,0.3-1.5,0.2h-1.8v0l0,0h0v-4.1
		c0-0.2,0.1-0.5,0.2-0.6c0.1-0.2,0.3-0.3,0.5-0.3h2.1c0.5-0.1,1.1,0.1,1.4,0.5c0.4,0.5,0.6,1.1,0.8,1.7c0.2,0,0.5,0,0.7-0.1
		c-0.2-1.5-0.3-2.4-0.4-2.9c0,0,0-0.1-0.1-0.1c-0.3,0.1-0.6,0.1-1,0.1h-5.1l-2.6,0c-0.1,0.1-0.1,0.2-0.1,0.4c0,0.1,0,0.2,0.1,0.4
		c0.5,0,1,0.1,1.4,0.3c0.3,0.4,0.4,1,0.3,1.5v7.9c0.1,0.5,0,1-0.3,1.5c-0.4,0.3-0.9,0.4-1.4,0.3c-0.1,0.1-0.1,0.2-0.1,0.4
		c0,0.1,0,0.2,0.1,0.3c0.7,0,1.5,0,2.6,0h4.3c0.6,0,1.5,0,2.6,0c0.3-1.1,0.6-2.2,0.7-3.3C204.1,45.6,203.9,45.6,203.6,45.7z"/>
</g>
</svg>
